<svg xmlns="http://www.w3.org/2000/svg" xmlns:svgjs="http://svgjs.com/svgjs" xmlns:xlink="http://www.w3.org/1999/xlink" viewBox="0.33 65.46 286.52 78.41"><svg xmlns="http://www.w3.org/2000/svg" width="288" height="288" viewBox="0 0 400 400"><path fill="#5046e5" fill-rule="evenodd" d="M47.583 93.857 C 40.674 100.766,45.142 112.000,54.800 112.000 C 64.458 112.000,68.926 100.766,62.017 93.857 C 58.102 89.942,51.498 89.942,47.583 93.857 M18.598 102.244 C 15.677 103.145,12.096 107.075,11.551 109.978 C 9.544 120.677,21.978 127.547,29.473 119.881 C 37.012 112.170,28.927 99.059,18.598 102.244 M83.257 102.963 C 75.215 107.176,75.022 118.131,82.921 121.974 C 92.065 126.422,101.622 116.865,97.174 107.721 C 94.645 102.524,88.261 100.341,83.257 102.963 M192.000 122.400 L 192.000 127.200 196.400 127.200 L 200.800 127.200 200.800 122.400 L 200.800 117.600 196.400 117.600 L 192.000 117.600 192.000 122.400 M280.000 142.022 L 280.000 166.523 282.425 168.948 C 284.956 171.479,295.342 172.178,297.553 169.967 C 299.693 167.827,297.533 163.200,294.393 163.200 C 289.663 163.200,289.647 163.123,289.413 139.534 L 289.200 118.000 284.600 117.760 L 280.000 117.520 280.000 142.022 M388.800 122.400 L 388.800 127.200 393.600 127.200 L 398.400 127.200 398.400 122.400 L 398.400 117.600 393.600 117.600 L 388.800 117.600 388.800 122.400 M156.706 120.304 C 125.456 131.472,140.594 179.612,172.351 170.055 C 177.121 168.619,181.892 165.354,183.935 162.127 L 185.505 159.647 181.753 157.437 C 177.194 154.753,177.306 154.760,176.072 157.065 C 171.392 165.809,156.974 164.131,151.576 154.214 C 142.342 137.249,162.776 118.372,175.136 132.449 L 177.552 135.201 181.137 132.674 C 185.301 129.739,185.190 129.028,179.845 124.453 C 174.229 119.646,163.788 117.774,156.706 120.304 M348.000 145.200 L 348.000 171.200 352.800 171.200 L 357.600 171.200 357.600 160.400 L 357.600 149.600 368.000 149.600 L 378.400 149.600 378.400 145.600 L 378.400 141.600 368.000 141.600 L 357.600 141.600 357.600 134.800 L 357.600 128.000 370.000 128.000 L 382.400 128.000 382.400 123.600 L 382.400 119.200 365.200 119.200 L 348.000 119.200 348.000 145.200 M252.117 132.903 C 238.484 135.416,232.182 149.853,239.287 162.293 C 245.861 173.804,265.064 174.973,272.074 164.288 L 273.526 162.073 269.026 160.681 L 264.526 159.288 262.282 161.176 C 255.247 167.096,246.410 162.079,246.403 152.160 C 246.396 141.773,255.643 136.692,262.800 143.150 C 264.632 144.804,272.800 143.203,272.800 141.191 C 272.800 136.422,260.267 131.400,252.117 132.903 M317.176 132.743 C 296.274 136.100,295.435 166.715,316.123 171.152 C 324.407 172.928,338.400 167.440,338.400 162.414 C 338.400 160.774,330.903 159.999,329.282 161.472 C 324.265 166.031,318.725 166.114,314.306 161.694 C 308.223 155.611,308.969 155.200,326.111 155.200 L 341.022 155.200 340.600 150.542 C 339.487 138.273,329.586 130.750,317.176 132.743 M192.000 152.000 L 192.000 171.200 196.400 171.200 L 200.800 171.200 200.800 152.000 L 200.800 132.800 196.400 132.800 L 192.000 132.800 192.000 152.000 M210.400 152.000 L 210.400 171.200 215.200 171.200 L 220.000 171.200 220.000 158.841 L 220.000 146.481 222.710 144.414 C 224.201 143.277,226.991 142.081,228.910 141.755 L 232.400 141.163 232.642 136.981 L 232.884 132.800 230.197 132.800 C 227.172 132.800,222.936 135.550,220.672 138.984 L 219.211 141.200 219.205 137.000 L 219.200 132.800 214.800 132.800 L 210.400 132.800 210.400 152.000 M388.800 152.000 L 388.800 171.200 393.600 171.200 L 398.400 171.200 398.400 152.000 L 398.400 132.800 393.600 132.800 L 388.800 132.800 388.800 152.000 M6.732 135.537 C -3.591 140.032,-0.446 156.000,10.763 156.000 C 22.203 156.000,25.814 140.945,15.565 135.983 C 11.764 134.143,10.124 134.060,6.732 135.537 M93.974 135.998 C 83.793 141.038,87.431 156.000,98.837 156.000 C 110.161 156.000,113.191 139.890,102.691 135.503 C 99.167 134.030,97.791 134.109,93.974 135.998 M326.248 140.821 C 328.584 142.244,331.864 147.603,330.955 148.511 C 330.769 148.697,326.085 148.748,320.546 148.625 L 310.475 148.400 311.971 145.060 C 314.492 139.436,320.870 137.542,326.248 140.821 M18.000 168.291 C 7.193 173.266,10.223 188.794,22.000 188.794 C 30.452 188.794,35.475 179.422,30.825 172.327 C 28.079 168.135,22.293 166.315,18.000 168.291 M83.257 168.601 C 73.001 173.831,76.220 188.794,87.600 188.794 C 99.475 188.794,102.426 172.984,91.426 168.297 C 88.051 166.859,86.565 166.914,83.257 168.601 M49.649 179.862 C 44.493 182.627,42.630 189.071,45.462 194.351 C 49.377 201.651,60.223 201.651,64.138 194.351 C 67.955 187.233,62.784 178.400,54.800 178.400 C 53.466 178.400,51.148 179.058,49.649 179.862 " class="color000 svgShape"/></svg></svg>