<svg xmlns="http://www.w3.org/2000/svg" xmlns:xlink="http://www.w3.org/1999/xlink" width="500" zoomAndPan="magnify" viewBox="0 0 375 374.999991" height="500" preserveAspectRatio="xMidYMid meet" version="1.0"><path fill="#ffffff" d="M 187.5 0 C 186.273438 0 185.046875 0.0585938 183.824219 0.179688 C 182.601562 0.300781 181.386719 0.480469 180.183594 0.71875 C 178.980469 0.960938 177.789062 1.257812 176.613281 1.613281 C 175.4375 1.972656 174.285156 2.382812 173.148438 2.855469 C 172.015625 3.324219 170.90625 3.847656 169.824219 4.429688 C 168.738281 5.007812 167.6875 5.636719 166.667969 6.320312 C 165.644531 7.003906 164.660156 7.734375 163.710938 8.511719 C 162.761719 9.292969 161.851562 10.113281 160.984375 10.984375 C 160.113281 11.851562 159.292969 12.761719 158.511719 13.710938 C 157.734375 14.660156 157.003906 15.644531 156.320312 16.667969 C 155.636719 17.6875 155.007812 18.738281 154.429688 19.824219 C 153.847656 20.90625 153.324219 22.015625 152.855469 23.148438 C 152.382812 24.285156 151.972656 25.4375 151.613281 26.613281 C 151.257812 27.789062 150.960938 28.980469 150.71875 30.183594 C 150.480469 31.390625 150.300781 32.601562 150.179688 33.824219 C 150.058594 35.046875 150 36.273438 150 37.5 C 150 38.726562 150.058594 39.953125 150.179688 41.175781 C 150.300781 42.398438 150.480469 43.609375 150.71875 44.816406 C 150.960938 46.019531 151.257812 47.210938 151.613281 48.386719 C 151.972656 49.5625 152.382812 50.714844 152.855469 51.851562 C 153.324219 52.984375 153.847656 54.09375 154.429688 55.175781 C 155.007812 56.261719 155.636719 57.3125 156.320312 58.332031 C 157.003906 59.355469 157.734375 60.339844 158.511719 61.289062 C 159.292969 62.238281 160.113281 63.148438 160.984375 64.015625 C 161.851562 64.886719 162.761719 65.707031 163.710938 66.488281 C 164.660156 67.265625 165.644531 67.996094 166.667969 68.679688 C 167.6875 69.363281 168.738281 69.992188 169.824219 70.570312 C 170.90625 71.152344 172.015625 71.675781 173.148438 72.144531 C 174.285156 72.617188 175.4375 73.027344 176.613281 73.386719 C 177.789062 73.742188 178.980469 74.039062 180.183594 74.28125 C 181.386719 74.519531 182.601562 74.699219 183.824219 74.820312 C 185.046875 74.941406 186.273438 75 187.5 75 C 188.726562 75 189.953125 74.941406 191.175781 74.820312 C 192.398438 74.699219 193.609375 74.519531 194.816406 74.28125 C 196.019531 74.039062 197.210938 73.742188 198.386719 73.386719 C 199.5625 73.027344 200.714844 72.617188 201.851562 72.144531 C 202.984375 71.675781 204.09375 71.152344 205.175781 70.570312 C 206.261719 69.992188 207.3125 69.363281 208.332031 68.679688 C 209.355469 67.996094 210.339844 67.265625 211.289062 66.488281 C 212.238281 65.707031 213.148438 64.886719 214.015625 64.015625 C 214.886719 63.148438 215.707031 62.238281 216.488281 61.289062 C 217.265625 60.339844 217.996094 59.355469 218.679688 58.332031 C 219.363281 57.3125 219.992188 56.261719 220.570312 55.175781 C 221.152344 54.09375 221.675781 52.984375 222.144531 51.851562 C 222.617188 50.714844 223.027344 49.5625 223.386719 48.386719 C 223.742188 47.210938 224.039062 46.019531 224.28125 44.816406 C 224.519531 43.609375 224.699219 42.398438 224.820312 41.175781 C 224.941406 39.953125 225 38.726562 225 37.5 C 225 36.273438 224.941406 35.046875 224.820312 33.824219 C 224.699219 32.601562 224.519531 31.390625 224.28125 30.183594 C 224.039062 28.980469 223.742188 27.789062 223.386719 26.613281 C 223.027344 25.4375 222.617188 24.285156 222.144531 23.148438 C 221.675781 22.015625 221.152344 20.90625 220.570312 19.824219 C 219.992188 18.738281 219.363281 17.6875 218.679688 16.667969 C 217.996094 15.644531 217.265625 14.660156 216.488281 13.710938 C 215.707031 12.761719 214.886719 11.851562 214.015625 10.984375 C 213.148438 10.113281 212.238281 9.292969 211.289062 8.511719 C 210.339844 7.734375 209.355469 7.003906 208.332031 6.320312 C 207.3125 5.636719 206.261719 5.007812 205.175781 4.429688 C 204.09375 3.847656 202.984375 3.324219 201.851562 2.855469 C 200.714844 2.382812 199.5625 1.972656 198.386719 1.613281 C 197.210938 1.257812 196.019531 0.960938 194.816406 0.71875 C 193.609375 0.480469 192.398438 0.300781 191.175781 0.179688 C 189.953125 0.0585938 188.726562 0 187.5 0 Z M 75 37.5 C 73.773438 37.5 72.546875 37.558594 71.324219 37.679688 C 70.101562 37.800781 68.890625 37.980469 67.683594 38.21875 C 66.480469 38.460938 65.289062 38.757812 64.113281 39.113281 C 62.9375 39.472656 61.785156 39.882812 60.648438 40.355469 C 59.515625 40.824219 58.40625 41.347656 57.324219 41.929688 C 56.238281 42.507812 55.1875 43.136719 54.167969 43.820312 C 53.144531 44.503906 52.160156 45.234375 51.210938 46.011719 C 50.261719 46.792969 49.351562 47.613281 48.484375 48.484375 C 47.613281 49.351562 46.792969 50.261719 46.011719 51.210938 C 45.234375 52.160156 44.503906 53.144531 43.820312 54.167969 C 43.136719 55.1875 42.507812 56.238281 41.929688 57.324219 C 41.347656 58.40625 40.824219 59.515625 40.355469 60.648438 C 39.882812 61.785156 39.472656 62.9375 39.113281 64.113281 C 38.757812 65.289062 38.460938 66.480469 38.21875 67.683594 C 37.980469 68.886719 37.800781 70.101562 37.679688 71.324219 C 37.558594 72.546875 37.5 73.773438 37.5 75 C 37.5 76.226562 37.558594 77.453125 37.679688 78.675781 C 37.800781 79.898438 37.980469 81.109375 38.21875 82.316406 C 38.460938 83.519531 38.757812 84.710938 39.113281 85.886719 C 39.472656 87.0625 39.882812 88.214844 40.355469 89.351562 C 40.824219 90.484375 41.347656 91.59375 41.929688 92.675781 C 42.507812 93.761719 43.136719 94.8125 43.820312 95.832031 C 44.503906 96.855469 45.234375 97.839844 46.011719 98.789062 C 46.792969 99.738281 47.613281 100.648438 48.484375 101.515625 C 49.351562 102.386719 50.261719 103.207031 51.210938 103.988281 C 52.160156 104.765625 53.144531 105.496094 54.167969 106.179688 C 55.1875 106.863281 56.238281 107.492188 57.324219 108.070312 C 58.40625 108.652344 59.515625 109.175781 60.648438 109.644531 C 61.785156 110.117188 62.9375 110.527344 64.113281 110.886719 C 65.289062 111.242188 66.480469 111.539062 67.683594 111.78125 C 68.890625 112.019531 70.101562 112.199219 71.324219 112.320312 C 72.546875 112.441406 73.773438 112.5 75 112.5 C 76.226562 112.5 77.453125 112.441406 78.675781 112.320312 C 79.898438 112.199219 81.109375 112.019531 82.316406 111.78125 C 83.519531 111.539062 84.710938 111.242188 85.886719 110.886719 C 87.0625 110.527344 88.214844 110.117188 89.351562 109.644531 C 90.484375 109.175781 91.59375 108.652344 92.675781 108.070312 C 93.761719 107.492188 94.8125 106.863281 95.832031 106.179688 C 96.855469 105.496094 97.839844 104.765625 98.789062 103.988281 C 99.738281 103.207031 100.648438 102.386719 101.515625 101.515625 C 102.386719 100.648438 103.207031 99.738281 103.988281 98.789062 C 104.765625 97.839844 105.496094 96.855469 106.179688 95.832031 C 106.863281 94.8125 107.492188 93.761719 108.070312 92.675781 C 108.652344 91.59375 109.175781 90.484375 109.644531 89.351562 C 110.117188 88.214844 110.527344 87.0625 110.886719 85.886719 C 111.242188 84.710938 111.539062 83.519531 111.78125 82.316406 C 112.019531 81.109375 112.199219 79.898438 112.320312 78.675781 C 112.441406 77.453125 112.5 76.226562 112.5 75 C 112.5 73.773438 112.441406 72.546875 112.320312 71.324219 C 112.199219 70.101562 112.019531 68.886719 111.78125 67.683594 C 111.539062 66.480469 111.242188 65.289062 110.886719 64.113281 C 110.527344 62.9375 110.117188 61.785156 109.644531 60.648438 C 109.175781 59.515625 108.652344 58.40625 108.070312 57.324219 C 107.492188 56.238281 106.863281 55.1875 106.179688 54.167969 C 105.496094 53.144531 104.765625 52.160156 103.988281 51.210938 C 103.207031 50.261719 102.386719 49.351562 101.515625 48.484375 C 100.648438 47.613281 99.738281 46.792969 98.789062 46.011719 C 97.839844 45.234375 96.855469 44.503906 95.832031 43.820312 C 94.8125 43.136719 93.761719 42.507812 92.675781 41.929688 C 91.59375 41.347656 90.484375 40.824219 89.351562 40.355469 C 88.214844 39.882812 87.0625 39.472656 85.886719 39.113281 C 84.710938 38.757812 83.519531 38.460938 82.316406 38.21875 C 81.109375 37.980469 79.898438 37.800781 78.675781 37.679688 C 77.453125 37.558594 76.226562 37.5 75 37.5 Z M 300 37.5 C 298.773438 37.5 297.546875 37.558594 296.324219 37.679688 C 295.101562 37.800781 293.886719 37.980469 292.683594 38.21875 C 291.480469 38.460938 290.289062 38.757812 289.113281 39.113281 C 287.9375 39.472656 286.785156 39.882812 285.648438 40.355469 C 284.515625 40.824219 283.40625 41.347656 282.324219 41.929688 C 281.238281 42.507812 280.1875 43.136719 279.167969 43.820312 C 278.144531 44.503906 277.160156 45.234375 276.210938 46.011719 C 275.261719 46.792969 274.351562 47.613281 273.484375 48.484375 C 272.613281 49.351562 271.792969 50.261719 271.011719 51.210938 C 270.234375 52.160156 269.503906 53.144531 268.820312 54.167969 C 268.136719 55.1875 267.507812 56.238281 266.929688 57.324219 C 266.347656 58.40625 265.824219 59.515625 265.355469 60.648438 C 264.882812 61.785156 264.472656 62.9375 264.113281 64.113281 C 263.757812 65.289062 263.460938 66.480469 263.21875 67.683594 C 262.980469 68.886719 262.800781 70.101562 262.679688 71.324219 C 262.558594 72.546875 262.5 73.773438 262.5 75 C 262.5 76.226562 262.558594 77.453125 262.679688 78.675781 C 262.800781 79.898438 262.980469 81.109375 263.21875 82.316406 C 263.460938 83.519531 263.757812 84.710938 264.113281 85.886719 C 264.472656 87.0625 264.882812 88.214844 265.355469 89.351562 C 265.824219 90.484375 266.347656 91.59375 266.929688 92.675781 C 267.507812 93.761719 268.136719 94.8125 268.820312 95.832031 C 269.503906 96.855469 270.234375 97.839844 271.011719 98.789062 C 271.792969 99.738281 272.613281 100.648438 273.484375 101.515625 C 274.351562 102.386719 275.261719 103.207031 276.210938 103.988281 C 277.160156 104.765625 278.144531 105.496094 279.167969 106.179688 C 280.1875 106.863281 281.238281 107.492188 282.324219 108.070312 C 283.40625 108.652344 284.515625 109.175781 285.648438 109.644531 C 286.785156 110.117188 287.9375 110.527344 289.113281 110.886719 C 290.289062 111.242188 291.480469 111.539062 292.683594 111.78125 C 293.886719 112.019531 295.101562 112.199219 296.324219 112.320312 C 297.546875 112.441406 298.773438 112.5 300 112.5 C 301.226562 112.5 302.453125 112.441406 303.675781 112.320312 C 304.898438 112.199219 306.109375 112.019531 307.316406 111.78125 C 308.519531 111.539062 309.710938 111.242188 310.886719 110.886719 C 312.0625 110.527344 313.214844 110.117188 314.351562 109.644531 C 315.484375 109.175781 316.59375 108.652344 317.675781 108.070312 C 318.761719 107.492188 319.8125 106.863281 320.832031 106.179688 C 321.855469 105.496094 322.839844 104.765625 323.789062 103.988281 C 324.738281 103.207031 325.648438 102.386719 326.515625 101.515625 C 327.386719 100.648438 328.207031 99.738281 328.988281 98.789062 C 329.765625 97.839844 330.496094 96.855469 331.179688 95.832031 C 331.863281 94.8125 332.492188 93.761719 333.070312 92.675781 C 333.652344 91.59375 334.175781 90.484375 334.644531 89.351562 C 335.117188 88.214844 335.527344 87.0625 335.886719 85.886719 C 336.242188 84.710938 336.539062 83.519531 336.78125 82.316406 C 337.019531 81.109375 337.199219 79.898438 337.320312 78.675781 C 337.441406 77.453125 337.5 76.226562 337.5 75 C 337.5 73.773438 337.441406 72.546875 337.320312 71.324219 C 337.199219 70.101562 337.019531 68.886719 336.78125 67.683594 C 336.539062 66.480469 336.242188 65.289062 335.886719 64.113281 C 335.527344 62.9375 335.117188 61.785156 334.644531 60.648438 C 334.175781 59.515625 333.652344 58.40625 333.070312 57.324219 C 332.492188 56.238281 331.863281 55.1875 331.179688 54.167969 C 330.496094 53.144531 329.765625 52.160156 328.988281 51.210938 C 328.207031 50.261719 327.386719 49.351562 326.515625 48.484375 C 325.648438 47.613281 324.738281 46.792969 323.789062 46.011719 C 322.839844 45.234375 321.855469 44.503906 320.832031 43.820312 C 319.8125 43.136719 318.761719 42.507812 317.675781 41.929688 C 316.59375 41.347656 315.484375 40.824219 314.351562 40.355469 C 313.214844 39.882812 312.0625 39.472656 310.886719 39.113281 C 309.710938 38.757812 308.519531 38.460938 307.316406 38.21875 C 306.109375 37.980469 304.898438 37.800781 303.675781 37.679688 C 302.453125 37.558594 301.226562 37.5 300 37.5 Z M 37.5 150 C 36.273438 150 35.046875 150.058594 33.824219 150.179688 C 32.601562 150.300781 31.390625 150.480469 30.183594 150.71875 C 28.980469 150.960938 27.789062 151.257812 26.613281 151.613281 C 25.4375 151.972656 24.285156 152.382812 23.148438 152.855469 C 22.015625 153.324219 20.90625 153.847656 19.824219 154.429688 C 18.738281 155.007812 17.6875 155.636719 16.667969 156.320312 C 15.644531 157.003906 14.660156 157.734375 13.710938 158.511719 C 12.761719 159.292969 11.851562 160.113281 10.984375 160.984375 C 10.113281 161.851562 9.292969 162.761719 8.511719 163.710938 C 7.734375 164.660156 7.003906 165.644531 6.320312 166.667969 C 5.636719 167.6875 5.007812 168.738281 4.429688 169.824219 C 3.847656 170.90625 3.324219 172.015625 2.855469 173.148438 C 2.382812 174.285156 1.972656 175.4375 1.613281 176.613281 C 1.257812 177.789062 0.960938 178.980469 0.71875 180.183594 C 0.480469 181.386719 0.300781 182.601562 0.179688 183.824219 C 0.0585938 185.046875 0 186.273438 0 187.5 C 0 188.726562 0.0585938 189.953125 0.179688 191.175781 C 0.300781 192.398438 0.480469 193.609375 0.71875 194.816406 C 0.960938 196.019531 1.257812 197.210938 1.613281 198.386719 C 1.972656 199.5625 2.382812 200.714844 2.855469 201.851562 C 3.324219 202.984375 3.847656 204.09375 4.429688 205.175781 C 5.007812 206.261719 5.636719 207.3125 6.320312 208.332031 C 7.003906 209.355469 7.734375 210.339844 8.511719 211.289062 C 9.292969 212.238281 10.113281 213.148438 10.984375 214.015625 C 11.851562 214.886719 12.761719 215.707031 13.710938 216.488281 C 14.660156 217.265625 15.644531 217.996094 16.667969 218.679688 C 17.6875 219.363281 18.738281 219.992188 19.824219 220.570312 C 20.90625 221.152344 22.015625 221.675781 23.148438 222.144531 C 24.285156 222.617188 25.4375 223.027344 26.613281 223.386719 C 27.789062 223.742188 28.980469 224.039062 30.183594 224.28125 C 31.390625 224.519531 32.601562 224.699219 33.824219 224.820312 C 35.046875 224.941406 36.273438 225 37.5 225 C 38.726562 225 39.953125 224.941406 41.175781 224.820312 C 42.398438 224.699219 43.609375 224.519531 44.816406 224.28125 C 46.019531 224.039062 47.210938 223.742188 48.386719 223.386719 C 49.5625 223.027344 50.714844 222.617188 51.851562 222.144531 C 52.984375 221.675781 54.09375 221.152344 55.175781 220.570312 C 56.261719 219.992188 57.3125 219.363281 58.332031 218.679688 C 59.355469 217.996094 60.339844 217.265625 61.289062 216.488281 C 62.238281 215.707031 63.148438 214.886719 64.015625 214.015625 C 64.886719 213.148438 65.707031 212.238281 66.488281 211.289062 C 67.265625 210.339844 67.996094 209.355469 68.679688 208.332031 C 69.363281 207.3125 69.992188 206.261719 70.570312 205.175781 C 71.152344 204.09375 71.675781 202.984375 72.144531 201.851562 C 72.617188 200.714844 73.027344 199.5625 73.386719 198.386719 C 73.742188 197.210938 74.039062 196.019531 74.28125 194.816406 C 74.519531 193.609375 74.699219 192.398438 74.820312 191.175781 C 74.941406 189.953125 75 188.726562 75 187.5 C 75 186.273438 74.941406 185.046875 74.820312 183.824219 C 74.699219 182.601562 74.519531 181.386719 74.28125 180.183594 C 74.039062 178.980469 73.742188 177.789062 73.386719 176.613281 C 73.027344 175.4375 72.617188 174.285156 72.144531 173.148438 C 71.675781 172.015625 71.152344 170.90625 70.570312 169.824219 C 69.992188 168.738281 69.363281 167.6875 68.679688 166.667969 C 67.996094 165.644531 67.265625 164.660156 66.488281 163.710938 C 65.707031 162.761719 64.886719 161.851562 64.015625 160.984375 C 63.148438 160.113281 62.238281 159.292969 61.289062 158.511719 C 60.339844 157.734375 59.355469 157.003906 58.332031 156.320312 C 57.3125 155.636719 56.261719 155.007812 55.175781 154.429688 C 54.09375 153.847656 52.984375 153.324219 51.851562 152.855469 C 50.714844 152.382812 49.5625 151.972656 48.386719 151.613281 C 47.210938 151.257812 46.019531 150.960938 44.816406 150.71875 C 43.609375 150.480469 42.398438 150.300781 41.175781 150.179688 C 39.953125 150.058594 38.726562 150 37.5 150 Z M 337.5 150 C 336.273438 150 335.046875 150.058594 333.824219 150.179688 C 332.601562 150.300781 331.386719 150.480469 330.183594 150.71875 C 328.980469 150.960938 327.789062 151.257812 326.613281 151.613281 C 325.4375 151.972656 324.285156 152.382812 323.148438 152.855469 C 322.015625 153.324219 320.90625 153.847656 319.824219 154.429688 C 318.738281 155.007812 317.6875 155.636719 316.667969 156.320312 C 315.644531 157.003906 314.660156 157.734375 313.710938 158.511719 C 312.761719 159.292969 311.851562 160.113281 310.984375 160.984375 C 310.113281 161.851562 309.292969 162.761719 308.511719 163.710938 C 307.734375 164.660156 307.003906 165.644531 306.320312 166.667969 C 305.636719 167.6875 305.007812 168.738281 304.429688 169.824219 C 303.847656 170.90625 303.324219 172.015625 302.855469 173.148438 C 302.382812 174.285156 301.972656 175.4375 301.613281 176.613281 C 301.257812 177.789062 300.960938 178.980469 300.71875 180.183594 C 300.480469 181.386719 300.300781 182.601562 300.179688 183.824219 C 300.058594 185.046875 300 186.273438 300 187.5 C 300 188.726562 300.058594 189.953125 300.179688 191.175781 C 300.300781 192.398438 300.480469 193.609375 300.71875 194.816406 C 300.960938 196.019531 301.257812 197.210938 301.613281 198.386719 C 301.972656 199.5625 302.382812 200.714844 302.855469 201.851562 C 303.324219 202.984375 303.847656 204.09375 304.429688 205.175781 C 305.007812 206.261719 305.636719 207.3125 306.320312 208.332031 C 307.003906 209.355469 307.734375 210.339844 308.511719 211.289062 C 309.292969 212.238281 310.113281 213.148438 310.984375 214.015625 C 311.851562 214.886719 312.761719 215.707031 313.710938 216.488281 C 314.660156 217.265625 315.644531 217.996094 316.667969 218.679688 C 317.6875 219.363281 318.738281 219.992188 319.824219 220.570312 C 320.90625 221.152344 322.015625 221.675781 323.148438 222.144531 C 324.285156 222.617188 325.4375 223.027344 326.613281 223.386719 C 327.789062 223.742188 328.980469 224.039062 330.183594 224.28125 C 331.386719 224.519531 332.601562 224.699219 333.824219 224.820312 C 335.046875 224.941406 336.273438 225 337.5 225 C 338.726562 225 339.953125 224.941406 341.175781 224.820312 C 342.398438 224.699219 343.609375 224.519531 344.816406 224.28125 C 346.019531 224.039062 347.210938 223.742188 348.386719 223.386719 C 349.5625 223.027344 350.714844 222.617188 351.851562 222.144531 C 352.984375 221.675781 354.09375 221.152344 355.175781 220.570312 C 356.261719 219.992188 357.3125 219.363281 358.332031 218.679688 C 359.355469 217.996094 360.339844 217.265625 361.289062 216.488281 C 362.238281 215.707031 363.148438 214.886719 364.015625 214.015625 C 364.886719 213.148438 365.707031 212.238281 366.488281 211.289062 C 367.265625 210.339844 367.996094 209.355469 368.679688 208.332031 C 369.363281 207.3125 369.992188 206.261719 370.570312 205.175781 C 371.152344 204.09375 371.675781 202.984375 372.144531 201.851562 C 372.617188 200.714844 373.027344 199.5625 373.386719 198.386719 C 373.742188 197.210938 374.039062 196.019531 374.28125 194.816406 C 374.519531 193.609375 374.699219 192.398438 374.820312 191.175781 C 374.941406 189.953125 375 188.726562 375 187.5 C 375 186.273438 374.941406 185.046875 374.820312 183.824219 C 374.699219 182.601562 374.519531 181.386719 374.28125 180.183594 C 374.039062 178.980469 373.742188 177.789062 373.386719 176.613281 C 373.027344 175.4375 372.617188 174.285156 372.144531 173.148438 C 371.675781 172.015625 371.152344 170.90625 370.570312 169.824219 C 369.992188 168.738281 369.363281 167.6875 368.679688 166.667969 C 367.996094 165.644531 367.265625 164.660156 366.488281 163.710938 C 365.707031 162.761719 364.886719 161.851562 364.015625 160.984375 C 363.148438 160.113281 362.238281 159.292969 361.289062 158.511719 C 360.339844 157.734375 359.355469 157.003906 358.332031 156.320312 C 357.3125 155.636719 356.261719 155.007812 355.175781 154.429688 C 354.09375 153.847656 352.984375 153.324219 351.851562 152.855469 C 350.714844 152.382812 349.5625 151.972656 348.386719 151.613281 C 347.210938 151.257812 346.019531 150.960938 344.816406 150.71875 C 343.609375 150.480469 342.398438 150.300781 341.175781 150.179688 C 339.953125 150.058594 338.726562 150 337.5 150 Z M 75 262.5 C 73.773438 262.5 72.546875 262.558594 71.324219 262.679688 C 70.101562 262.800781 68.890625 262.980469 67.683594 263.21875 C 66.480469 263.460938 65.289062 263.757812 64.113281 264.113281 C 62.9375 264.472656 61.785156 264.882812 60.648438 265.355469 C 59.515625 265.824219 58.40625 266.347656 57.324219 266.929688 C 56.238281 267.507812 55.1875 268.136719 54.167969 268.820312 C 53.144531 269.503906 52.160156 270.234375 51.210938 271.011719 C 50.261719 271.792969 49.351562 272.613281 48.484375 273.484375 C 47.613281 274.351562 46.792969 275.261719 46.011719 276.210938 C 45.234375 277.160156 44.503906 278.144531 43.820312 279.167969 C 43.136719 280.1875 42.507812 281.238281 41.929688 282.324219 C 41.347656 283.40625 40.824219 284.515625 40.355469 285.648438 C 39.882812 286.785156 39.472656 287.9375 39.113281 289.113281 C 38.757812 290.289062 38.460938 291.480469 38.21875 292.683594 C 37.980469 293.886719 37.800781 295.101562 37.679688 296.324219 C 37.558594 297.546875 37.5 298.773438 37.5 300 C 37.5 301.226562 37.558594 302.453125 37.679688 303.675781 C 37.800781 304.898438 37.980469 306.109375 38.21875 307.316406 C 38.460938 308.519531 38.757812 309.710938 39.113281 310.886719 C 39.472656 312.0625 39.882812 313.214844 40.355469 314.351562 C 40.824219 315.484375 41.347656 316.59375 41.929688 317.675781 C 42.507812 318.761719 43.136719 319.8125 43.820312 320.832031 C 44.503906 321.855469 45.234375 322.839844 46.011719 323.789062 C 46.792969 324.738281 47.613281 325.648438 48.484375 326.515625 C 49.351562 327.386719 50.261719 328.207031 51.210938 328.988281 C 52.160156 329.765625 53.144531 330.496094 54.167969 331.179688 C 55.1875 331.863281 56.238281 332.492188 57.324219 333.070312 C 58.40625 333.652344 59.515625 334.175781 60.648438 334.644531 C 61.785156 335.117188 62.9375 335.527344 64.113281 335.886719 C 65.289062 336.242188 66.480469 336.539062 67.683594 336.78125 C 68.890625 337.019531 70.101562 337.199219 71.324219 337.320312 C 72.546875 337.441406 73.773438 337.5 75 337.5 C 76.226562 337.5 77.453125 337.441406 78.675781 337.320312 C 79.898438 337.199219 81.109375 337.019531 82.316406 336.78125 C 83.519531 336.539062 84.710938 336.242188 85.886719 335.886719 C 87.0625 335.527344 88.214844 335.117188 89.351562 334.644531 C 90.484375 334.175781 91.59375 333.652344 92.675781 333.070312 C 93.761719 332.492188 94.8125 331.863281 95.832031 331.179688 C 96.855469 330.496094 97.839844 329.765625 98.789062 328.988281 C 99.738281 328.207031 100.648438 327.386719 101.515625 326.515625 C 102.386719 325.648438 103.207031 324.738281 103.988281 323.789062 C 104.765625 322.839844 105.496094 321.855469 106.179688 320.832031 C 106.863281 319.8125 107.492188 318.761719 108.070312 317.675781 C 108.652344 316.59375 109.175781 315.484375 109.644531 314.351562 C 110.117188 313.214844 110.527344 312.0625 110.886719 310.886719 C 111.242188 309.710938 111.539062 308.519531 111.78125 307.316406 C 112.019531 306.109375 112.199219 304.898438 112.320312 303.675781 C 112.441406 302.453125 112.5 301.226562 112.5 300 C 112.5 298.773438 112.441406 297.546875 112.320312 296.324219 C 112.199219 295.101562 112.019531 293.886719 111.78125 292.683594 C 111.539062 291.480469 111.242188 290.289062 110.886719 289.113281 C 110.527344 287.9375 110.117188 286.785156 109.644531 285.648438 C 109.175781 284.515625 108.652344 283.40625 108.070312 282.324219 C 107.492188 281.238281 106.863281 280.1875 106.179688 279.167969 C 105.496094 278.144531 104.765625 277.160156 103.988281 276.210938 C 103.207031 275.261719 102.386719 274.351562 101.515625 273.484375 C 100.648438 272.613281 99.738281 271.792969 98.789062 271.011719 C 97.839844 270.234375 96.855469 269.503906 95.832031 268.820312 C 94.8125 268.136719 93.761719 267.507812 92.675781 266.929688 C 91.59375 266.347656 90.484375 265.824219 89.351562 265.355469 C 88.214844 264.882812 87.0625 264.472656 85.886719 264.113281 C 84.710938 263.757812 83.519531 263.460938 82.316406 263.21875 C 81.109375 262.980469 79.898438 262.800781 78.675781 262.679688 C 77.453125 262.558594 76.226562 262.5 75 262.5 Z M 300 262.5 C 298.773438 262.5 297.546875 262.558594 296.324219 262.679688 C 295.101562 262.800781 293.886719 262.980469 292.683594 263.21875 C 291.480469 263.460938 290.289062 263.757812 289.113281 264.113281 C 287.9375 264.472656 286.785156 264.882812 285.648438 265.355469 C 284.515625 265.824219 283.40625 266.347656 282.324219 266.929688 C 281.238281 267.507812 280.1875 268.136719 279.167969 268.820312 C 278.144531 269.503906 277.160156 270.234375 276.210938 271.011719 C 275.261719 271.792969 274.351562 272.613281 273.484375 273.484375 C 272.613281 274.351562 271.792969 275.261719 271.011719 276.210938 C 270.234375 277.160156 269.503906 278.144531 268.820312 279.167969 C 268.136719 280.1875 267.507812 281.238281 266.929688 282.324219 C 266.347656 283.40625 265.824219 284.515625 265.355469 285.648438 C 264.882812 286.785156 264.472656 287.9375 264.113281 289.113281 C 263.757812 290.289062 263.460938 291.480469 263.21875 292.683594 C 262.980469 293.886719 262.800781 295.101562 262.679688 296.324219 C 262.558594 297.546875 262.5 298.773438 262.5 300 C 262.5 301.226562 262.558594 302.453125 262.679688 303.675781 C 262.800781 304.898438 262.980469 306.109375 263.21875 307.316406 C 263.460938 308.519531 263.757812 309.710938 264.113281 310.886719 C 264.472656 312.0625 264.882812 313.214844 265.355469 314.351562 C 265.824219 315.484375 266.347656 316.59375 266.929688 317.675781 C 267.507812 318.761719 268.136719 319.8125 268.820312 320.832031 C 269.503906 321.855469 270.234375 322.839844 271.011719 323.789062 C 271.792969 324.738281 272.613281 325.648438 273.484375 326.515625 C 274.351562 327.386719 275.261719 328.207031 276.210938 328.988281 C 277.160156 329.765625 278.144531 330.496094 279.167969 331.179688 C 280.1875 331.863281 281.238281 332.492188 282.324219 333.070312 C 283.40625 333.652344 284.515625 334.175781 285.648438 334.644531 C 286.785156 335.117188 287.9375 335.527344 289.113281 335.886719 C 290.289062 336.242188 291.480469 336.539062 292.683594 336.78125 C 293.886719 337.019531 295.101562 337.199219 296.324219 337.320312 C 297.546875 337.441406 298.773438 337.5 300 337.5 C 301.226562 337.5 302.453125 337.441406 303.675781 337.320312 C 304.898438 337.199219 306.109375 337.019531 307.316406 336.78125 C 308.519531 336.539062 309.710938 336.242188 310.886719 335.886719 C 312.0625 335.527344 313.214844 335.117188 314.351562 334.644531 C 315.484375 334.175781 316.59375 333.652344 317.675781 333.070312 C 318.761719 332.492188 319.8125 331.863281 320.832031 331.179688 C 321.855469 330.496094 322.839844 329.765625 323.789062 328.988281 C 324.738281 328.207031 325.648438 327.386719 326.515625 326.515625 C 327.386719 325.648438 328.207031 324.738281 328.988281 323.789062 C 329.765625 322.839844 330.496094 321.855469 331.179688 320.832031 C 331.863281 319.8125 332.492188 318.761719 333.070312 317.675781 C 333.652344 316.59375 334.175781 315.484375 334.644531 314.351562 C 335.117188 313.214844 335.527344 312.0625 335.886719 310.886719 C 336.242188 309.710938 336.539062 308.519531 336.78125 307.316406 C 337.019531 306.109375 337.199219 304.898438 337.320312 303.675781 C 337.441406 302.453125 337.5 301.226562 337.5 300 C 337.5 298.773438 337.441406 297.546875 337.320312 296.324219 C 337.199219 295.101562 337.019531 293.886719 336.78125 292.683594 C 336.539062 291.480469 336.242188 290.289062 335.886719 289.113281 C 335.527344 287.9375 335.117188 286.785156 334.644531 285.648438 C 334.175781 284.515625 333.652344 283.40625 333.070312 282.324219 C 332.492188 281.238281 331.863281 280.1875 331.179688 279.167969 C 330.496094 278.144531 329.765625 277.160156 328.988281 276.210938 C 328.207031 275.261719 327.386719 274.351562 326.515625 273.484375 C 325.648438 272.613281 324.738281 271.792969 323.789062 271.011719 C 322.839844 270.234375 321.855469 269.503906 320.832031 268.820312 C 319.8125 268.136719 318.761719 267.507812 317.675781 266.929688 C 316.59375 266.347656 315.484375 265.824219 314.351562 265.355469 C 313.214844 264.882812 312.0625 264.472656 310.886719 264.113281 C 309.710938 263.757812 308.519531 263.460938 307.316406 263.21875 C 306.109375 262.980469 304.898438 262.800781 303.675781 262.679688 C 302.453125 262.558594 301.226562 262.5 300 262.5 Z M 187.5 300 C 186.273438 300 185.046875 300.058594 183.824219 300.179688 C 182.601562 300.300781 181.386719 300.480469 180.183594 300.71875 C 178.980469 300.960938 177.789062 301.257812 176.613281 301.613281 C 175.4375 301.972656 174.285156 302.382812 173.148438 302.855469 C 172.015625 303.324219 170.90625 303.847656 169.824219 304.429688 C 168.738281 305.007812 167.6875 305.636719 166.667969 306.320312 C 165.644531 307.003906 164.660156 307.734375 163.710938 308.511719 C 162.761719 309.292969 161.851562 310.113281 160.984375 310.984375 C 160.113281 311.851562 159.292969 312.761719 158.511719 313.710938 C 157.734375 314.660156 157.003906 315.644531 156.320312 316.667969 C 155.636719 317.6875 155.007812 318.738281 154.429688 319.824219 C 153.847656 320.90625 153.324219 322.015625 152.855469 323.148438 C 152.382812 324.285156 151.972656 325.4375 151.613281 326.613281 C 151.257812 327.789062 150.960938 328.980469 150.71875 330.183594 C 150.480469 331.386719 150.300781 332.601562 150.179688 333.824219 C 150.058594 335.046875 150 336.273438 150 337.5 C 150 338.726562 150.058594 339.953125 150.179688 341.175781 C 150.300781 342.398438 150.480469 343.609375 150.71875 344.816406 C 150.960938 346.019531 151.257812 347.210938 151.613281 348.386719 C 151.972656 349.5625 152.382812 350.714844 152.855469 351.851562 C 153.324219 352.984375 153.847656 354.09375 154.429688 355.175781 C 155.007812 356.261719 155.636719 357.3125 156.320312 358.332031 C 157.003906 359.355469 157.734375 360.339844 158.511719 361.289062 C 159.292969 362.238281 160.113281 363.148438 160.984375 364.015625 C 161.851562 364.886719 162.761719 365.707031 163.710938 366.488281 C 164.660156 367.265625 165.644531 367.996094 166.667969 368.679688 C 167.6875 369.363281 168.738281 369.992188 169.824219 370.570312 C 170.90625 371.152344 172.015625 371.675781 173.148438 372.144531 C 174.285156 372.617188 175.4375 373.027344 176.613281 373.386719 C 177.789062 373.742188 178.980469 374.039062 180.183594 374.28125 C 181.386719 374.519531 182.601562 374.699219 183.824219 374.820312 C 185.046875 374.941406 186.273438 375 187.5 375 C 188.726562 375 189.953125 374.941406 191.175781 374.820312 C 192.398438 374.699219 193.609375 374.519531 194.816406 374.28125 C 196.019531 374.039062 197.210938 373.742188 198.386719 373.386719 C 199.5625 373.027344 200.714844 372.617188 201.851562 372.144531 C 202.984375 371.675781 204.09375 371.152344 205.175781 370.570312 C 206.261719 369.992188 207.3125 369.363281 208.332031 368.679688 C 209.355469 367.996094 210.339844 367.265625 211.289062 366.488281 C 212.238281 365.707031 213.148438 364.886719 214.015625 364.015625 C 214.886719 363.148438 215.707031 362.238281 216.488281 361.289062 C 217.265625 360.339844 217.996094 359.355469 218.679688 358.332031 C 219.363281 357.3125 219.992188 356.261719 220.570312 355.175781 C 221.152344 354.09375 221.675781 352.984375 222.144531 351.851562 C 222.617188 350.714844 223.027344 349.5625 223.386719 348.386719 C 223.742188 347.210938 224.039062 346.019531 224.28125 344.816406 C 224.519531 343.609375 224.699219 342.398438 224.820312 341.175781 C 224.941406 339.953125 225 338.726562 225 337.5 C 225 336.273438 224.941406 335.046875 224.820312 333.824219 C 224.699219 332.601562 224.519531 331.386719 224.28125 330.183594 C 224.039062 328.980469 223.742188 327.789062 223.386719 326.613281 C 223.027344 325.4375 222.617188 324.285156 222.144531 323.148438 C 221.675781 322.015625 221.152344 320.90625 220.570312 319.824219 C 219.992188 318.738281 219.363281 317.6875 218.679688 316.667969 C 217.996094 315.644531 217.265625 314.660156 216.488281 313.710938 C 215.707031 312.761719 214.886719 311.851562 214.015625 310.984375 C 213.148438 310.113281 212.238281 309.292969 211.289062 308.511719 C 210.339844 307.734375 209.355469 307.003906 208.332031 306.320312 C 207.3125 305.636719 206.261719 305.007812 205.175781 304.429688 C 204.09375 303.847656 202.984375 303.324219 201.851562 302.855469 C 200.714844 302.382812 199.5625 301.972656 198.386719 301.613281 C 197.210938 301.257812 196.019531 300.960938 194.816406 300.71875 C 193.609375 300.480469 192.398438 300.300781 191.175781 300.179688 C 189.953125 300.058594 188.726562 300 187.5 300 Z M 187.5 300 " fill-opacity="1" fill-rule="nonzero"/></svg>